Coordinates
version=1
nRows=29
nColumns=22
inDegrees=yes

Units are S.I. units (second, meters, Newtons, ...)
If the header above contains a line with 'inDegrees', this indicates whether rotational values are in degrees (yes) or radians (no).

endheader
time	pelvis_tilt	pelvis_list	pelvis_rotation	pelvis_tx	pelvis_ty	pelvis_tz	hip_flexion_r	hip_adduction_r	hip_rotation_r	knee_angle_r	ankle_angle_r	subtalar_angle_r	hip_flexion_l	hip_adduction_l	hip_rotation_l	knee_angle_l	ankle_angle_l	subtalar_angle_l	lumbar_extension	lumbar_bending	lumbar_rotation
      2.59000000	     -5.28567160	     -1.85076960	    -42.49832807	     -0.53488929	      0.92964101	      0.09905231	     -2.79368989	     13.11835564	     16.49944854	    -19.34914565	     17.43684118	     -5.06050680	     30.99781021	     -6.28524883	      9.16108155	    -14.72097333	      9.38030223	      8.17262925	     -5.98758193	      0.96730721	     12.10676207
      2.60000000	     -5.30095488	     -1.73643656	    -42.88728210	     -0.52773054	      0.92864410	      0.10382001	     -2.97095861	     12.98569621	     16.72196533	    -19.98535131	     17.55940661	     -4.89659858	     31.01263836	     -6.04995040	      9.03976056	    -15.20727734	      8.90676089	      7.76201336	     -5.83536646	      0.89129611	     12.18332214
      2.61000000	     -5.31516527	     -1.62674019	    -43.24168234	     -0.52042248	      0.92776980	      0.10865557	     -3.14536015	     12.85343480	     16.91880434	    -20.63401274	     17.59371487	     -4.72025966	     31.02252070	     -5.78655746	      9.04237353	    -15.86020783	      8.26889742	      7.19547994	     -5.67569547	      0.81674896	     12.23080914
      2.62000000	     -5.32768968	     -1.50962323	    -43.56789750	     -0.51297867	      0.92702845	      0.11356876	     -3.29523590	     12.71806397	     17.10195344	    -21.32108906	     17.54952721	     -4.53882551	     31.03076601	     -5.49667158	      9.13541913	    -16.62164745	      7.49068991	      6.49583316	     -5.49884376	      0.73162455	     12.24798666
      2.63000000	     -5.33431868	     -1.38115820	    -43.84840279	     -0.50536705	      0.92645688	      0.11854957	     -3.43140444	     12.56930613	     17.26092255	    -22.02021672	     17.39049443	     -4.33098558	     31.04060458	     -5.17091470	      9.31355917	    -17.44745182	      6.57009442	      5.67561742	     -5.30377806	      0.62956557	     12.22737715
      2.64000000	     -5.32979998	     -1.25179486	    -44.08344734	     -0.49758494	      0.92609180	      0.12359126	     -3.56373934	     12.41213457	     17.39178429	    -22.73042148	     17.12013446	     -4.08311490	     31.05663480	     -4.82056318	      9.52474492	    -18.32606812	      5.57897693	      4.78408793	     -5.10327748	      0.51783368	     12.17855518
      2.65000000	     -5.30892131	     -1.10110137	    -44.27991925	     -0.48966822	      0.92592649	      0.12869370	     -3.65373764	     12.23706379	     17.49871470	    -23.50105360	     16.75342046	     -3.79655338	     31.08194144	     -4.44167825	      9.72525275	    -19.22084801	      4.58173924	      3.91161651	     -4.88863305	      0.37323654	     12.08373889
      2.66000000	     -5.26701720	     -0.94650406	    -44.43726281	     -0.48163170	      0.92598923	      0.13386331	     -3.71670011	     12.05524518	     17.56608910	    -24.32618613	     16.26985857	     -3.45314438	     31.10468528	     -4.05175923	      9.88478078	    -20.13042637	      3.63668594	      3.13756418	     -4.67816078	      0.20463693	     11.95062128
      2.67000000	     -5.20468094	     -0.79381232	    -44.56567856	     -0.47348100	      0.92628680	      0.13911130	     -3.74659932	     11.87131461	     17.58626242	    -25.21967247	     15.64979565	     -3.02210744	     31.10577584	     -3.66533003	      9.99195506	    -21.03897333	      2.78465510	      2.50266085	     -4.47473556	      0.01801361	     11.79651642
      2.68000000	     -5.12506101	     -0.65579796	    -44.67708010	     -0.46524125	      0.92681528	      0.14445366	     -3.73678268	     11.70083162	     17.56174509	    -26.20161434	     14.87542696	     -2.44936128	     31.05847175	     -3.30586083	     10.03204244	    -21.92155925	      2.05962946	      2.03752667	     -4.28647523	     -0.17318436	     11.62079706
      2.69000000	     -5.04182603	     -0.52945685	    -44.76843156	     -0.45693679	      0.92751149	      0.14985784	     -3.64301286	     11.54957233	     17.42843305	    -27.31152420	     13.97074003	     -1.77180540	     30.97779383	     -2.98052077	      9.99741554	    -22.78076060	      1.46181751	      1.79861842	     -4.10247247	     -0.35956542	     11.42779022
      2.70000000	     -4.95802758	     -0.42496013	    -44.85839084	     -0.44861214	      0.92836379	      0.15531384	     -3.44929483	     11.42597934	     17.18837564	    -28.57462416	     12.90904714	     -0.95184518	     30.83424541	     -2.70436471	      9.90931178	    -23.57796270	      0.97780920	      1.74323601	     -3.93298964	     -0.52934645	     11.24509362
      2.71000000	     -4.87179585	     -0.35759723	    -44.96399609	     -0.44029145	      0.92936940	      0.16084962	     -3.16714534	     11.33785211	     16.87875815	    -29.98467232	     11.63239844	      0.15725961	     30.60393857	     -2.50104178	      9.71260218	    -24.29273070	      0.68952276	      1.78012840	     -3.78952174	     -0.66942820	     11.04575376
      2.72000000	     -4.80025043	     -0.30174844	    -45.08374690	     -0.43205097	      0.93042647	      0.16636209	     -2.71767161	     11.27134219	     16.43221772	    -31.59219058	     10.16826036	      1.39873517	     30.33012962	     -2.34052883	      9.48734392	    -24.93284719	      0.47927464	      1.85569840	     -3.65179468	     -0.78680322	     10.87627604
      2.73000000	     -4.72682320	     -0.27128126	    -45.23040278	     -0.42389487	      0.93153679	      0.17185286	     -2.12588615	     11.21496393	     15.88601336	    -33.38586167	      8.54115939	      3.01086134	     29.97690337	     -2.22934000	      9.16849486	    -25.47165358	      0.45027836	      1.86152193	     -3.54589966	     -0.87447166	     10.68126791
      2.74000000	     -4.64005631	     -0.25662021	    -45.41480699	     -0.41590028	      0.93267737	      0.17728981	     -1.38386770	     11.14387648	     15.24017099	    -35.35872399	      6.75309605	      4.84071216	     29.54075156	     -2.13527431	      8.83357039	    -25.90604758	      0.50391638	      1.76039334	     -3.48029057	     -0.95675376	     10.51444457
      2.75000000	     -4.56981216	     -0.22813458	    -45.61376559	     -0.40807907	      0.93370240	      0.18258689	     -0.43566960	     11.04705642	     14.46888661	    -37.51549622	      4.90239861	      6.81564689	     29.11053862	     -2.03943634	      8.47243351	    -26.29555705	      0.65800175	      1.50807596	     -3.41405411	     -1.02465386	     10.32364583
      2.76000000	     -4.50375794	     -0.17067721	    -45.82505624	     -0.40045704	      0.93457103	      0.18770460	      0.71302599	     10.89176870	     13.58705597	    -39.83746135	      3.09380979	      8.83237306	     28.70115964	     -1.91583095	      8.08889728	    -26.65681630	      0.88479859	      1.10419584	     -3.35140873	     -1.09903043	     10.09466590
      2.77000000	     -4.37109386	     -0.14118162	    -46.07212714	     -0.39302275	      0.93547034	      0.19272446	      1.91802524	     10.64863121	     12.64110950	    -42.24670639	      1.42418665	     10.94417546	     28.16177161	     -1.76942420	      7.68530777	    -26.90915289	      1.17467600	      0.61276926	     -3.39088092	     -1.19739146	      9.86059952
      2.78000000	     -4.24265875	     -0.05180872	    -46.31613003	     -0.38576014	      0.93612686	      0.19751956	      3.31205988	     10.29445046	     11.59452422	    -44.76400369	      0.04126529	     12.74444645	     27.67767712	     -1.56003347	      7.29626678	    -27.15234135	      1.57234497	      0.01928115	     -3.40642397	     -1.32047495	      9.57276757
      2.79000000	     -4.03717184	      0.04104194	    -46.56285338	     -0.37863202	      0.93675712	      0.20213064	      4.74063465	      9.79449257	     10.48859967	    -47.30471968	     -0.99180218	     14.26385330	     27.12199094	     -1.28496263	      6.87592732	    -27.34749338	      1.98442572	     -0.57007537	     -3.51009777	     -1.49195955	      9.22953762
      2.80000000	     -3.77788765	      0.15019181	    -46.80525855	     -0.37162011	      0.93731961	      0.20656860	      6.20919441	      9.15524667	      9.33920091	    -49.83042108	     -1.63457849	     15.23698680	     26.53099864	     -0.94619586	      6.46468070	    -27.51525859	      2.45309634	     -1.13319634	     -3.66661316	     -1.70618773	      8.82886019
      2.81000000	     -3.46106821	      0.26402471	    -47.03542668	     -0.36465998	      0.93789222	      0.21085100	      7.67282660	      8.37912429	      8.16481220	    -52.27751207	     -1.90002741	     15.60710434	     25.87666729	     -0.55073033	      6.05952290	    -27.62540505	      2.94876994	     -1.62600441	     -3.88029326	     -1.95017263	      8.37024184
      2.82000000	     -3.07587754	      0.35531250	    -47.25477532	     -0.35771945	      0.93857746	      0.21504145	      9.06819330	      7.48890092	      7.00107642	    -54.58317409	     -1.83022089	     15.51137136	     25.11143451	     -0.10858535	      5.69519974	    -27.65612334	      3.49424685	     -1.94953301	     -4.17435063	     -2.21796744	      7.87306067
      2.83000000	     -2.75869636	      0.47519769	    -47.44367035	     -0.35086502	      0.93915610	      0.21912703	     10.53678949	      6.58428946	      5.84334976	    -56.72724202	     -1.53514110	     14.56516326	     24.44214562	      0.30895264	      5.33084883	    -27.69961455	      3.95535185	     -2.50098286	     -4.39362623	     -2.43711333	      7.29069601
      2.84000000	     -2.39008838	      0.54030946	    -47.62055607	     -0.34401671	      0.93996589	      0.22323323	     11.87389852	      5.64042839	      4.73183798	    -58.62996860	     -1.04515504	     13.19982995	     23.63146738	      0.73069552	      5.01899477	    -27.63651966	      4.45649329	     -2.79740794	     -4.69139740	     -2.64943961	      6.68954276
      2.85000000	     -2.05029136	      0.56671678	    -47.78377159	     -0.33726429	      0.94087600	      0.22734634	     13.15462746	      4.75082109	      3.69770159	    -60.28365346	     -0.41572280	     11.55862414	     22.79758141	      1.11160599	      4.78026887	    -27.54108962	      4.95191853	     -3.02794072	     -4.99474503	     -2.80665871	      6.06828217
      2.86000000	     -1.75843515	      0.55419293	    -47.93464807	     -0.33060181	      0.94189800	      0.23152162	     14.37429246	      3.94844565	      2.74131943	    -61.65530639	      0.31000647	      9.76573716	     21.94107258	      1.42714997	      4.58400564	    -27.38814421	      5.42828475	     -3.19696574	     -5.27905909	     -2.89475758	      5.42817586
      2.87000000	     -1.52330697	      0.49726122	    -48.08344444	     -0.32408459	      0.94301629	      0.23577517	     15.53261503	      3.26761536	      1.87414449	    -62.73815512	      1.09823759	      7.96460263	     21.07162337	      1.66447422	      4.43633345	    -27.19359061	      5.89312957	     -3.32106592	     -5.54504500	     -2.90971191	      4.79350120
